# xmcd
#
# Track frame offsets:
#	150
#	13221
#	28976
#	43417
#	58833
#	70417
#	82547
#	101054
#	113455
#	126942
#	143669
#	158192
#	174707
#	190026
#
# Disc length: 2729 seconds
#
# Revision: 1
# Processed by: cddbd v1.5.2PL0 Copyright (c) Steve Scherf et al.
# Submitted via: audiograbber 1.83.01
#
DISCID=c10aa70e
DTITLE=G-Runs 'N Roses - Gravity
DYEAR=2013
DGENRE=Bluegrass
TTITLE0=Deeper than the holler
TTITLE1=Gravity
TTITLE2=Crossing the minefield
TTITLE3=Miami, my Amy
TTITLE4=Let's make a deal
TTITLE5=Leaves that are green
TTITLE6=The circe is small
TTITLE7=Redwood Hill
TTITLE8=Confusion
TTITLE9=Misfire
TTITLE10=I'll be there
TTITLE11=The girl you'll never be
TTITLE12=Thank you for your trouble
TTITLE13=Hot Burrito 1
EXTD=
EXTT0=
EXTT1=
EXTT2=
EXTT3=
EXTT4=
EXTT5=
EXTT6=
EXTT7=
EXTT8=
EXTT9=
EXTT10=
EXTT11=
EXTT12=
EXTT13=
PLAYORDER=
